<svg width="656" height="451" viewBox="0 0 656 451" fill="none" xmlns="http://www.w3.org/2000/svg">
<rect y="203.059" width="148" height="44" rx="22" fill="#808080"/>
<path d="M51.4938 231.299C49.8671 231.299 48.6338 230.893 47.7938 230.079C46.9671 229.266 46.5538 228.106 46.5538 226.599V222.419C46.5538 220.913 46.9738 219.753 47.8138 218.939C48.6671 218.126 49.9004 217.719 51.5138 217.719C52.5404 217.719 53.4404 217.899 54.2138 218.259C55.0004 218.606 55.5871 219.113 55.9738 219.779C56.3738 220.433 56.5071 221.219 56.3738 222.139C56.3604 222.206 56.3404 222.273 56.3138 222.339C56.2871 222.393 56.2338 222.419 56.1538 222.419H54.8538C54.7071 222.419 54.6471 222.353 54.6738 222.219C54.7138 221.259 54.4604 220.519 53.9138 219.999C53.3804 219.479 52.5871 219.219 51.5338 219.219C50.4804 219.219 49.6671 219.493 49.0938 220.039C48.5338 220.586 48.2538 221.373 48.2538 222.399V226.619C48.2538 227.646 48.5338 228.433 49.0938 228.979C49.6671 229.526 50.4804 229.799 51.5338 229.799C52.5871 229.799 53.4004 229.539 53.9738 229.019C54.5471 228.486 54.7804 227.746 54.6738 226.799C54.6471 226.666 54.7071 226.599 54.8538 226.599H56.1338C56.2671 226.599 56.3471 226.693 56.3738 226.879C56.4538 227.773 56.2938 228.553 55.8938 229.219C55.5071 229.873 54.9338 230.386 54.1738 230.759C53.4138 231.119 52.5204 231.299 51.4938 231.299ZM62.9147 231.299C61.568 231.299 60.5414 230.973 59.8347 230.319C59.1414 229.666 58.7947 228.673 58.7947 227.339V225.019C58.7947 223.686 59.1414 222.693 59.8347 222.039C60.528 221.386 61.5547 221.059 62.9147 221.059C64.2614 221.059 65.2814 221.386 65.9747 222.039C66.6814 222.693 67.0347 223.686 67.0347 225.019V227.339C67.0347 228.673 66.688 229.666 65.9947 230.319C65.3014 230.973 64.2747 231.299 62.9147 231.299ZM62.9147 229.799C63.768 229.799 64.3814 229.586 64.7547 229.159C65.1414 228.719 65.3347 228.059 65.3347 227.179V225.179C65.3347 224.299 65.1414 223.646 64.7547 223.219C64.3814 222.779 63.768 222.559 62.9147 222.559C62.0614 222.559 61.4414 222.779 61.0547 223.219C60.6814 223.646 60.4947 224.299 60.4947 225.179V227.179C60.4947 228.059 60.6814 228.719 61.0547 229.159C61.4414 229.586 62.0614 229.799 62.9147 229.799ZM70.5978 231.059C70.5445 231.059 70.4978 231.039 70.4578 230.999C70.4178 230.959 70.3978 230.913 70.3978 230.859V222.759H68.8578C68.8045 222.759 68.7578 222.739 68.7178 222.699C68.6778 222.659 68.6578 222.613 68.6578 222.559V221.499C68.6578 221.433 68.6778 221.386 68.7178 221.359C68.7578 221.319 68.8045 221.299 68.8578 221.299H70.3978V220.259C70.3978 219.273 70.6845 218.513 71.2578 217.979C71.8445 217.433 72.6445 217.159 73.6578 217.159C73.9645 217.159 74.2778 217.193 74.5978 217.259C74.9178 217.313 75.1911 217.386 75.4178 217.479C75.6711 217.573 75.7978 217.686 75.7978 217.819V218.879C75.7978 218.959 75.7645 219.013 75.6978 219.039C75.6445 219.066 75.5245 219.039 75.3378 218.959C75.1245 218.866 74.8711 218.793 74.5778 218.739C74.2845 218.673 74.0178 218.639 73.7778 218.639C73.2311 218.639 72.8111 218.779 72.5178 219.059C72.2378 219.339 72.0978 219.753 72.0978 220.299V221.299H74.9978C75.1311 221.299 75.1978 221.366 75.1978 221.499V222.559C75.1978 222.613 75.1778 222.659 75.1378 222.699C75.1111 222.739 75.0645 222.759 74.9978 222.759H72.0978V230.859C72.0978 230.913 72.0778 230.959 72.0378 230.999C72.0111 231.039 71.9645 231.059 71.8978 231.059H70.5978ZM77.8378 231.059C77.7845 231.059 77.7378 231.039 77.6978 230.999C77.6578 230.959 77.6378 230.913 77.6378 230.859V222.759H76.0978C76.0445 222.759 75.9978 222.739 75.9578 222.699C75.9178 222.659 75.8978 222.613 75.8978 222.559V221.499C75.8978 221.433 75.9178 221.386 75.9578 221.359C75.9978 221.319 76.0445 221.299 76.0978 221.299H77.6378V220.259C77.6378 219.273 77.9245 218.513 78.4978 217.979C79.0845 217.433 79.8845 217.159 80.8978 217.159C81.2045 217.159 81.5178 217.193 81.8378 217.259C82.1578 217.313 82.4311 217.386 82.6578 217.479C82.9111 217.573 83.0378 217.686 83.0378 217.819V218.879C83.0378 218.959 83.0045 219.013 82.9378 219.039C82.8845 219.066 82.7645 219.039 82.5778 218.959C82.3645 218.866 82.1111 218.793 81.8178 218.739C81.5245 218.673 81.2578 218.639 81.0178 218.639C80.4711 218.639 80.0511 218.779 79.7578 219.059C79.4778 219.339 79.3378 219.753 79.3378 220.299V221.299H82.2378C82.3711 221.299 82.4378 221.366 82.4378 221.499V222.559C82.4378 222.613 82.4178 222.659 82.3778 222.699C82.3511 222.739 82.3045 222.759 82.2378 222.759H79.3378V230.859C79.3378 230.913 79.3178 230.959 79.2778 230.999C79.2511 231.039 79.2045 231.059 79.1378 231.059H77.8378ZM87.3841 231.299C86.1041 231.299 85.1174 230.999 84.4241 230.399C83.7441 229.799 83.4041 228.913 83.4041 227.739V224.939C83.4041 223.673 83.7441 222.713 84.4241 222.059C85.1041 221.393 86.0907 221.059 87.3841 221.059C88.6774 221.059 89.6574 221.386 90.3241 222.039C91.0041 222.679 91.3441 223.613 91.3441 224.839V226.399C91.3441 226.533 91.2774 226.599 91.1441 226.599H85.1041V227.239C85.1041 228.133 85.2907 228.786 85.6641 229.199C86.0374 229.599 86.6441 229.799 87.4841 229.799C88.1107 229.799 88.5907 229.699 88.9241 229.499C89.2707 229.286 89.4441 228.979 89.4441 228.579C89.4441 228.433 89.5174 228.359 89.6641 228.359H90.9641C91.0707 228.359 91.1374 228.419 91.1641 228.539C91.2174 229.393 90.9041 230.066 90.2241 230.559C89.5441 231.053 88.5974 231.299 87.3841 231.299ZM85.1041 225.139H89.6441V225.019C89.6441 224.179 89.4574 223.559 89.0841 223.159C88.7107 222.759 88.1507 222.559 87.4041 222.559C86.6307 222.559 86.0507 222.766 85.6641 223.179C85.2907 223.593 85.1041 224.213 85.1041 225.039V225.139ZM97.7552 231.299C96.4752 231.299 95.4885 230.999 94.7952 230.399C94.1152 229.799 93.7752 228.913 93.7752 227.739V224.939C93.7752 223.673 94.1152 222.713 94.7952 222.059C95.4752 221.393 96.4618 221.059 97.7552 221.059C99.0485 221.059 100.028 221.386 100.695 222.039C101.375 222.679 101.715 223.613 101.715 224.839V226.399C101.715 226.533 101.648 226.599 101.515 226.599H95.4752V227.239C95.4752 228.133 95.6618 228.786 96.0352 229.199C96.4085 229.599 97.0152 229.799 97.8552 229.799C98.4818 229.799 98.9618 229.699 99.2952 229.499C99.6418 229.286 99.8152 228.979 99.8152 228.579C99.8152 228.433 99.8885 228.359 100.035 228.359H101.335C101.442 228.359 101.508 228.419 101.535 228.539C101.588 229.393 101.275 230.066 100.595 230.559C99.9152 231.053 98.9685 231.299 97.7552 231.299ZM95.4752 225.139H100.015V225.019C100.015 224.179 99.8285 223.559 99.4552 223.159C99.0818 222.759 98.5218 222.559 97.7752 222.559C97.0018 222.559 96.4218 222.766 96.0352 223.179C95.6618 223.593 95.4752 224.213 95.4752 225.039V225.139Z" fill="white"/>
<rect x="255" y="0.0594482" width="148" height="44" rx="22" fill="#808080"/>
<path d="M306.582 28.2994C304.955 28.2994 303.722 27.8928 302.882 27.0794C302.055 26.2661 301.642 25.1061 301.642 23.5994V19.4194C301.642 17.9128 302.062 16.7528 302.902 15.9394C303.755 15.1261 304.988 14.7194 306.602 14.7194C307.628 14.7194 308.528 14.8994 309.302 15.2594C310.088 15.6061 310.675 16.1128 311.062 16.7794C311.462 17.4328 311.595 18.2194 311.462 19.1394C311.448 19.2061 311.428 19.2728 311.402 19.3394C311.375 19.3928 311.322 19.4194 311.242 19.4194H309.942C309.795 19.4194 309.735 19.3528 309.762 19.2194C309.802 18.2594 309.548 17.5194 309.002 16.9994C308.468 16.4794 307.675 16.2194 306.622 16.2194C305.568 16.2194 304.755 16.4928 304.182 17.0394C303.622 17.5861 303.342 18.3728 303.342 19.3994V23.6194C303.342 24.6461 303.622 25.4328 304.182 25.9794C304.755 26.5261 305.568 26.7994 306.622 26.7994C307.675 26.7994 308.488 26.5394 309.062 26.0194C309.635 25.4861 309.868 24.7461 309.762 23.7994C309.735 23.6661 309.795 23.5994 309.942 23.5994H311.222C311.355 23.5994 311.435 23.6928 311.462 23.8794C311.542 24.7728 311.382 25.5528 310.982 26.2194C310.595 26.8728 310.022 27.3861 309.262 27.7594C308.502 28.1194 307.608 28.2994 306.582 28.2994ZM315.64 31.7594C315.48 31.7594 315.434 31.6794 315.5 31.5194L316.92 27.9394L313.22 18.5394C313.154 18.3794 313.2 18.2994 313.36 18.2994H314.78C314.887 18.2994 314.96 18.3528 315 18.4594L316.8 23.2994C316.96 23.7128 317.114 24.1394 317.26 24.5794C317.42 25.0194 317.574 25.4528 317.72 25.8794H317.74C317.887 25.4528 318.04 25.0194 318.2 24.5794C318.374 24.1394 318.534 23.7128 318.68 23.2994L320.48 18.4594C320.52 18.3528 320.6 18.2994 320.72 18.2994H322.06C322.127 18.2994 322.174 18.3261 322.2 18.3794C322.24 18.4194 322.247 18.4728 322.22 18.5394L317.16 31.5994C317.12 31.7061 317.047 31.7594 316.94 31.7594H315.64ZM327.797 28.2994C327.117 28.2994 326.57 28.1861 326.157 27.9594C325.757 27.7194 325.464 27.3661 325.277 26.8994C325.104 26.4328 325.017 25.8528 325.017 25.1594V19.7594H323.477C323.344 19.7594 323.277 19.6928 323.277 19.5594V18.4994C323.277 18.3661 323.344 18.2994 323.477 18.2994H325.057L325.277 15.8994C325.29 15.7661 325.364 15.6994 325.497 15.6994H326.497C326.63 15.6994 326.697 15.7661 326.697 15.8994L326.717 18.2994H329.697C329.83 18.2994 329.897 18.3661 329.897 18.4994V19.5594C329.897 19.6928 329.83 19.7594 329.697 19.7594H326.717V25.1194C326.717 25.7461 326.824 26.1861 327.037 26.4394C327.264 26.6928 327.644 26.8194 328.177 26.8194C328.444 26.8194 328.71 26.7928 328.977 26.7394C329.244 26.6728 329.477 26.5928 329.677 26.4994C329.744 26.4728 329.797 26.4728 329.837 26.4994C329.89 26.5261 329.917 26.5728 329.917 26.6394V27.7394C329.917 27.8461 329.864 27.9194 329.757 27.9594C329.517 28.0528 329.237 28.1328 328.917 28.1994C328.597 28.2661 328.224 28.2994 327.797 28.2994ZM332.272 28.0594C332.139 28.0594 332.072 27.9928 332.072 27.8594V20.6794C332.072 20.3061 332.059 19.9461 332.032 19.5994C332.019 19.2394 331.986 18.8794 331.932 18.5194C331.906 18.3728 331.972 18.2994 332.132 18.2994H333.352C333.419 18.2994 333.466 18.3128 333.492 18.3394C333.532 18.3661 333.559 18.4128 333.572 18.4794C333.626 18.7328 333.666 19.0261 333.692 19.3594C333.719 19.6794 333.732 19.9528 333.732 20.1794L333.772 21.2394V27.8594C333.772 27.9928 333.706 28.0594 333.572 28.0594H332.272ZM333.552 21.8394L333.512 20.1994C333.792 19.7861 334.112 19.4194 334.472 19.0994C334.846 18.7794 335.219 18.5261 335.592 18.3394C335.979 18.1528 336.332 18.0594 336.652 18.0594C336.892 18.0594 337.072 18.0794 337.192 18.1194C337.259 18.1328 337.299 18.1594 337.312 18.1994C337.339 18.2261 337.359 18.2661 337.372 18.3194C337.399 18.5994 337.406 18.8861 337.392 19.1794C337.392 19.4728 337.372 19.7528 337.332 20.0194C337.319 20.0861 337.286 20.1328 337.232 20.1594C337.192 20.1861 337.139 20.1928 337.072 20.1794C336.966 20.1528 336.852 20.1328 336.732 20.1194C336.612 20.1061 336.486 20.0994 336.352 20.0994C336.019 20.0994 335.686 20.1728 335.352 20.3194C335.019 20.4661 334.699 20.6728 334.392 20.9394C334.086 21.1928 333.806 21.4928 333.552 21.8394ZM341.841 28.2994C340.988 28.2994 340.335 28.0128 339.881 27.4394C339.428 26.8661 339.201 26.0394 339.201 24.9594V18.4994C339.201 18.3661 339.268 18.2994 339.401 18.2994H340.701C340.835 18.2994 340.901 18.3661 340.901 18.4994V24.8794C340.901 25.5328 341.015 26.0194 341.241 26.3394C341.481 26.6461 341.848 26.7994 342.341 26.7994C342.835 26.7994 343.328 26.6461 343.821 26.3394C344.328 26.0328 344.955 25.4994 345.701 24.7394L345.661 26.3194C345.235 26.7594 344.808 27.1261 344.381 27.4194C343.955 27.7128 343.528 27.9328 343.101 28.0794C342.688 28.2261 342.268 28.2994 341.841 28.2994ZM345.841 28.0594C345.775 28.0594 345.721 28.0461 345.681 28.0194C345.641 27.9794 345.615 27.9261 345.601 27.8594C345.561 27.6061 345.528 27.3461 345.501 27.0794C345.475 26.8128 345.455 26.5394 345.441 26.2594L345.341 25.4194V18.4994C345.341 18.3661 345.408 18.2994 345.541 18.2994H346.841C346.975 18.2994 347.041 18.3661 347.041 18.4994V25.6194C347.041 25.9794 347.048 26.3528 347.061 26.7394C347.088 27.1261 347.128 27.4994 347.181 27.8594C347.208 27.9928 347.135 28.0594 346.961 28.0594H345.841ZM353.201 28.2994C352.001 28.2994 351.101 28.0394 350.501 27.5194C349.901 26.9861 349.601 26.1928 349.601 25.1394C349.601 25.0194 349.668 24.9594 349.801 24.9594H351.121C351.241 24.9594 351.301 25.0128 351.301 25.1194C351.301 25.7194 351.448 26.1528 351.741 26.4194C352.048 26.6861 352.541 26.8194 353.221 26.8194C353.874 26.8194 354.368 26.7128 354.701 26.4994C355.034 26.2728 355.201 25.9528 355.201 25.5394C355.201 25.2328 355.108 24.9794 354.921 24.7794C354.734 24.5661 354.441 24.3728 354.041 24.1994L351.761 23.2594C351.028 22.9528 350.508 22.6061 350.201 22.2194C349.894 21.8328 349.741 21.3328 349.741 20.7194C349.741 19.8394 350.021 19.1794 350.581 18.7394C351.141 18.2861 351.974 18.0594 353.081 18.0594C354.214 18.0594 355.094 18.2994 355.721 18.7794C356.348 19.2461 356.661 19.9128 356.661 20.7794C356.661 20.8994 356.594 20.9594 356.461 20.9594H355.141C355.088 20.9594 355.041 20.9394 355.001 20.8994C354.961 20.8461 354.941 20.7594 354.941 20.6394C354.941 20.2928 354.781 20.0261 354.461 19.8394C354.141 19.6394 353.701 19.5394 353.141 19.5394C352.568 19.5394 352.141 19.6394 351.861 19.8394C351.581 20.0261 351.441 20.3194 351.441 20.7194C351.441 21.0128 351.514 21.2328 351.661 21.3794C351.821 21.5261 352.134 21.6994 352.601 21.8994L354.881 22.8594C355.588 23.1528 356.101 23.4994 356.421 23.8994C356.741 24.2994 356.901 24.8128 356.901 25.4394C356.901 26.3594 356.581 27.0661 355.941 27.5594C355.301 28.0528 354.388 28.2994 353.201 28.2994Z" fill="white"/>
<circle cx="329" cy="225.059" r="75" fill="black"/>
<path d="M295.429 219.059C295.295 219.059 295.229 218.993 295.229 218.859V207.499H291.629C291.495 207.499 291.429 207.433 291.429 207.299V206.159C291.429 206.026 291.495 205.959 291.629 205.959H300.529C300.662 205.959 300.729 206.026 300.729 206.159V207.299C300.729 207.433 300.662 207.499 300.529 207.499H296.929V218.859C296.929 218.993 296.862 219.059 296.729 219.059H295.429ZM305.19 219.299C303.843 219.299 302.817 218.973 302.11 218.319C301.417 217.666 301.07 216.673 301.07 215.339V213.019C301.07 211.686 301.417 210.693 302.11 210.039C302.803 209.386 303.83 209.059 305.19 209.059C306.537 209.059 307.557 209.386 308.25 210.039C308.957 210.693 309.31 211.686 309.31 213.019V215.339C309.31 216.673 308.963 217.666 308.27 218.319C307.577 218.973 306.55 219.299 305.19 219.299ZM305.19 217.799C306.043 217.799 306.657 217.586 307.03 217.159C307.417 216.719 307.61 216.059 307.61 215.179V213.179C307.61 212.299 307.417 211.646 307.03 211.219C306.657 210.779 306.043 210.559 305.19 210.559C304.337 210.559 303.717 210.779 303.33 211.219C302.957 211.646 302.77 212.299 302.77 213.179V215.179C302.77 216.059 302.957 216.719 303.33 217.159C303.717 217.586 304.337 217.799 305.19 217.799ZM316.433 219.299C315.926 219.299 315.399 219.233 314.853 219.099C314.306 218.966 313.866 218.786 313.533 218.559L313.473 217.119C313.859 217.333 314.286 217.499 314.753 217.619C315.219 217.739 315.659 217.799 316.073 217.799C316.846 217.799 317.413 217.573 317.773 217.119C318.133 216.666 318.313 215.986 318.313 215.079V212.879C318.313 212.079 318.173 211.493 317.893 211.119C317.613 210.746 317.199 210.559 316.653 210.559C316.186 210.559 315.713 210.699 315.233 210.979C314.766 211.246 314.146 211.726 313.373 212.419V210.819C313.826 210.406 314.246 210.073 314.633 209.819C315.033 209.553 315.419 209.359 315.793 209.239C316.179 209.119 316.586 209.059 317.013 209.059C317.999 209.059 318.746 209.366 319.253 209.979C319.759 210.593 320.013 211.526 320.013 212.779V215.279C320.013 216.573 319.706 217.566 319.093 218.259C318.479 218.953 317.593 219.299 316.433 219.299ZM312.253 222.759C312.119 222.759 312.053 222.693 312.053 222.559V211.559C312.053 211.253 312.039 210.913 312.013 210.539C311.986 210.166 311.953 209.833 311.913 209.539C311.899 209.379 311.966 209.299 312.113 209.299H313.333C313.466 209.299 313.539 209.366 313.553 209.499C313.579 209.593 313.606 209.726 313.633 209.899C313.659 210.073 313.679 210.246 313.693 210.419C313.706 210.579 313.706 210.693 313.693 210.759L313.753 211.759V222.559C313.753 222.693 313.686 222.759 313.553 222.759H312.253ZM327.394 219.059C327.261 219.059 327.194 218.993 327.194 218.859V206.159C327.194 206.026 327.261 205.959 327.394 205.959H329.714C329.834 205.959 329.914 206.006 329.954 206.099L333.714 213.739C333.967 214.233 334.187 214.679 334.374 215.079C334.574 215.479 334.747 215.853 334.894 216.199C335.054 216.546 335.201 216.886 335.334 217.219H335.374C335.374 216.939 335.374 216.653 335.374 216.359C335.374 216.053 335.367 215.746 335.354 215.439C335.354 215.133 335.354 214.833 335.354 214.539C335.354 214.233 335.354 213.939 335.354 213.659V206.159C335.354 206.026 335.421 205.959 335.554 205.959H336.834C336.967 205.959 337.034 206.026 337.034 206.159V218.859C337.034 218.993 336.967 219.059 336.834 219.059H334.574C334.454 219.059 334.374 219.013 334.334 218.919L330.634 211.479C330.421 211.039 330.214 210.619 330.014 210.219C329.814 209.806 329.621 209.399 329.434 208.999C329.247 208.599 329.067 208.199 328.894 207.799H328.854C328.854 208.146 328.854 208.479 328.854 208.799C328.854 209.106 328.854 209.413 328.854 209.719C328.867 210.026 328.874 210.339 328.874 210.659C328.874 210.966 328.874 211.293 328.874 211.639V218.859C328.874 218.993 328.807 219.059 328.674 219.059H327.394ZM344.096 219.299C342.75 219.299 341.723 218.973 341.016 218.319C340.323 217.666 339.976 216.673 339.976 215.339V213.019C339.976 211.686 340.323 210.693 341.016 210.039C341.71 209.386 342.736 209.059 344.096 209.059C345.443 209.059 346.463 209.386 347.156 210.039C347.863 210.693 348.216 211.686 348.216 213.019V215.339C348.216 216.673 347.87 217.666 347.176 218.319C346.483 218.973 345.456 219.299 344.096 219.299ZM344.096 217.799C344.95 217.799 345.563 217.586 345.936 217.159C346.323 216.719 346.516 216.059 346.516 215.179V213.179C346.516 212.299 346.323 211.646 345.936 211.219C345.563 210.779 344.95 210.559 344.096 210.559C343.243 210.559 342.623 210.779 342.236 211.219C341.863 211.646 341.676 212.299 341.676 213.179V215.179C341.676 216.059 341.863 216.719 342.236 217.159C342.623 217.586 343.243 217.799 344.096 217.799ZM354.379 219.299C353.699 219.299 353.152 219.186 352.739 218.959C352.339 218.719 352.046 218.366 351.859 217.899C351.686 217.433 351.599 216.853 351.599 216.159V210.759H350.059C349.926 210.759 349.859 210.693 349.859 210.559V209.499C349.859 209.366 349.926 209.299 350.059 209.299H351.639L351.859 206.899C351.872 206.766 351.946 206.699 352.079 206.699H353.079C353.212 206.699 353.279 206.766 353.279 206.899L353.299 209.299H356.279C356.412 209.299 356.479 209.366 356.479 209.499V210.559C356.479 210.693 356.412 210.759 356.279 210.759H353.299V216.119C353.299 216.746 353.406 217.186 353.619 217.439C353.846 217.693 354.226 217.819 354.759 217.819C355.026 217.819 355.292 217.793 355.559 217.739C355.826 217.673 356.059 217.593 356.259 217.499C356.326 217.473 356.379 217.473 356.419 217.499C356.472 217.526 356.499 217.573 356.499 217.639V218.739C356.499 218.846 356.446 218.919 356.339 218.959C356.099 219.053 355.819 219.133 355.499 219.199C355.179 219.266 354.806 219.299 354.379 219.299ZM362.12 219.299C360.84 219.299 359.854 218.999 359.16 218.399C358.48 217.799 358.14 216.913 358.14 215.739V212.939C358.14 211.673 358.48 210.713 359.16 210.059C359.84 209.393 360.827 209.059 362.12 209.059C363.414 209.059 364.394 209.386 365.06 210.039C365.74 210.679 366.08 211.613 366.08 212.839V214.399C366.08 214.533 366.014 214.599 365.88 214.599H359.84V215.239C359.84 216.133 360.027 216.786 360.4 217.199C360.774 217.599 361.38 217.799 362.22 217.799C362.847 217.799 363.327 217.699 363.66 217.499C364.007 217.286 364.18 216.979 364.18 216.579C364.18 216.433 364.254 216.359 364.4 216.359H365.7C365.807 216.359 365.874 216.419 365.9 216.539C365.954 217.393 365.64 218.066 364.96 218.559C364.28 219.053 363.334 219.299 362.12 219.299ZM359.84 213.139H364.38V213.019C364.38 212.179 364.194 211.559 363.82 211.159C363.447 210.759 362.887 210.559 362.14 210.559C361.367 210.559 360.787 210.766 360.4 211.179C360.027 211.593 359.84 212.213 359.84 213.039V213.139ZM293.527 243.059C293.394 243.059 293.327 242.993 293.327 242.859V230.159C293.327 230.026 293.394 229.959 293.527 229.959H300.647C300.78 229.959 300.847 230.026 300.847 230.159V231.299C300.847 231.433 300.78 231.499 300.647 231.499H295.027V235.859H299.887C300.02 235.859 300.087 235.926 300.087 236.059V237.139C300.087 237.273 300.02 237.339 299.887 237.339H295.027V242.859C295.027 242.993 294.96 243.059 294.827 243.059H293.527ZM306.222 243.299C304.942 243.299 303.955 242.999 303.262 242.399C302.582 241.799 302.242 240.913 302.242 239.739V236.939C302.242 235.673 302.582 234.713 303.262 234.059C303.942 233.393 304.929 233.059 306.222 233.059C307.515 233.059 308.495 233.386 309.162 234.039C309.842 234.679 310.182 235.613 310.182 236.839V238.399C310.182 238.533 310.115 238.599 309.982 238.599H303.942V239.239C303.942 240.133 304.129 240.786 304.502 241.199C304.875 241.599 305.482 241.799 306.322 241.799C306.949 241.799 307.429 241.699 307.762 241.499C308.109 241.286 308.282 240.979 308.282 240.579C308.282 240.433 308.355 240.359 308.502 240.359H309.802C309.909 240.359 309.975 240.419 310.002 240.539C310.055 241.393 309.742 242.066 309.062 242.559C308.382 243.053 307.435 243.299 306.222 243.299ZM303.942 237.139H308.482V237.019C308.482 236.179 308.295 235.559 307.922 235.159C307.549 234.759 306.989 234.559 306.242 234.559C305.469 234.559 304.889 234.766 304.502 235.179C304.129 235.593 303.942 236.213 303.942 237.039V237.139ZM318.533 243.059C318.453 243.059 318.4 243.033 318.373 242.979C318.346 242.926 318.32 242.859 318.293 242.779C318.28 242.673 318.246 242.446 318.193 242.099C318.153 241.739 318.126 241.419 318.113 241.139L318.053 240.379V236.399C318.053 235.733 317.92 235.259 317.653 234.979C317.386 234.699 316.92 234.559 316.253 234.559C315.053 234.559 314.453 234.973 314.453 235.799C314.453 235.933 314.393 235.999 314.273 235.999H312.953C312.82 235.999 312.746 235.873 312.733 235.619C312.666 234.859 312.96 234.246 313.613 233.779C314.28 233.299 315.18 233.059 316.313 233.059C317.473 233.059 318.333 233.333 318.893 233.879C319.466 234.426 319.753 235.253 319.753 236.359V240.639C319.753 241.106 319.766 241.526 319.793 241.899C319.82 242.259 319.853 242.573 319.893 242.839C319.92 242.986 319.853 243.059 319.693 243.059H318.533ZM314.713 243.299C313.94 243.299 313.346 243.066 312.933 242.599C312.533 242.133 312.333 241.453 312.333 240.559C312.333 239.866 312.466 239.299 312.733 238.859C313.013 238.419 313.453 238.079 314.053 237.839C314.666 237.599 315.48 237.439 316.493 237.359L318.373 237.199V238.499L316.453 238.659C315.533 238.739 314.9 238.906 314.553 239.159C314.206 239.413 314.033 239.839 314.033 240.439C314.033 240.893 314.126 241.233 314.313 241.459C314.5 241.686 314.78 241.799 315.153 241.799C315.593 241.799 316.053 241.653 316.533 241.359C317.013 241.053 317.646 240.493 318.433 239.679V241.179C317.966 241.686 317.526 242.099 317.113 242.419C316.713 242.726 316.32 242.946 315.933 243.079C315.546 243.226 315.14 243.299 314.713 243.299ZM326.176 243.299C325.496 243.299 324.949 243.186 324.536 242.959C324.136 242.719 323.843 242.366 323.656 241.899C323.483 241.433 323.396 240.853 323.396 240.159V234.759H321.856C321.723 234.759 321.656 234.693 321.656 234.559V233.499C321.656 233.366 321.723 233.299 321.856 233.299H323.436L323.656 230.899C323.669 230.766 323.743 230.699 323.876 230.699H324.876C325.009 230.699 325.076 230.766 325.076 230.899L325.096 233.299H328.076C328.209 233.299 328.276 233.366 328.276 233.499V234.559C328.276 234.693 328.209 234.759 328.076 234.759H325.096V240.119C325.096 240.746 325.203 241.186 325.416 241.439C325.643 241.693 326.023 241.819 326.556 241.819C326.823 241.819 327.089 241.793 327.356 241.739C327.623 241.673 327.856 241.593 328.056 241.499C328.123 241.473 328.176 241.473 328.216 241.499C328.269 241.526 328.296 241.573 328.296 241.639V242.739C328.296 242.846 328.243 242.919 328.136 242.959C327.896 243.053 327.616 243.133 327.296 243.199C326.976 243.266 326.603 243.299 326.176 243.299ZM333.091 243.299C332.238 243.299 331.585 243.013 331.131 242.439C330.678 241.866 330.451 241.039 330.451 239.959V233.499C330.451 233.366 330.518 233.299 330.651 233.299H331.951C332.085 233.299 332.151 233.366 332.151 233.499V239.879C332.151 240.533 332.265 241.019 332.491 241.339C332.731 241.646 333.098 241.799 333.591 241.799C334.085 241.799 334.578 241.646 335.071 241.339C335.578 241.033 336.205 240.499 336.951 239.739L336.911 241.319C336.485 241.759 336.058 242.126 335.631 242.419C335.205 242.713 334.778 242.933 334.351 243.079C333.938 243.226 333.518 243.299 333.091 243.299ZM337.091 243.059C337.025 243.059 336.971 243.046 336.931 243.019C336.891 242.979 336.865 242.926 336.851 242.859C336.811 242.606 336.778 242.346 336.751 242.079C336.725 241.813 336.705 241.539 336.691 241.259L336.591 240.419V233.499C336.591 233.366 336.658 233.299 336.791 233.299H338.091C338.225 233.299 338.291 233.366 338.291 233.499V240.619C338.291 240.979 338.298 241.353 338.311 241.739C338.338 242.126 338.378 242.499 338.431 242.859C338.458 242.993 338.385 243.059 338.211 243.059H337.091ZM341.491 243.059C341.358 243.059 341.291 242.993 341.291 242.859V235.679C341.291 235.306 341.278 234.946 341.251 234.599C341.238 234.239 341.204 233.879 341.151 233.519C341.124 233.373 341.191 233.299 341.351 233.299H342.571C342.638 233.299 342.684 233.313 342.711 233.339C342.751 233.366 342.778 233.413 342.791 233.479C342.844 233.733 342.884 234.026 342.911 234.359C342.938 234.679 342.951 234.953 342.951 235.179L342.991 236.239V242.859C342.991 242.993 342.924 243.059 342.791 243.059H341.491ZM342.771 236.839L342.731 235.199C343.011 234.786 343.331 234.419 343.691 234.099C344.064 233.779 344.438 233.526 344.811 233.339C345.198 233.153 345.551 233.059 345.871 233.059C346.111 233.059 346.291 233.079 346.411 233.119C346.478 233.133 346.518 233.159 346.531 233.199C346.558 233.226 346.578 233.266 346.591 233.319C346.618 233.599 346.624 233.886 346.611 234.179C346.611 234.473 346.591 234.753 346.551 235.019C346.538 235.086 346.504 235.133 346.451 235.159C346.411 235.186 346.358 235.193 346.291 235.179C346.184 235.153 346.071 235.133 345.951 235.119C345.831 235.106 345.704 235.099 345.571 235.099C345.238 235.099 344.904 235.173 344.571 235.319C344.238 235.466 343.918 235.673 343.611 235.939C343.304 236.193 343.024 236.493 342.771 236.839ZM351.945 243.299C350.665 243.299 349.678 242.999 348.985 242.399C348.305 241.799 347.965 240.913 347.965 239.739V236.939C347.965 235.673 348.305 234.713 348.985 234.059C349.665 233.393 350.651 233.059 351.945 233.059C353.238 233.059 354.218 233.386 354.885 234.039C355.565 234.679 355.905 235.613 355.905 236.839V238.399C355.905 238.533 355.838 238.599 355.705 238.599H349.665V239.239C349.665 240.133 349.851 240.786 350.225 241.199C350.598 241.599 351.205 241.799 352.045 241.799C352.671 241.799 353.151 241.699 353.485 241.499C353.831 241.286 354.005 240.979 354.005 240.579C354.005 240.433 354.078 240.359 354.225 240.359H355.525C355.631 240.359 355.698 240.419 355.725 240.539C355.778 241.393 355.465 242.066 354.785 242.559C354.105 243.053 353.158 243.299 351.945 243.299ZM349.665 237.139H354.205V237.019C354.205 236.179 354.018 235.559 353.645 235.159C353.271 234.759 352.711 234.559 351.965 234.559C351.191 234.559 350.611 234.766 350.225 235.179C349.851 235.593 349.665 236.213 349.665 237.039V237.139ZM361.756 243.299C360.556 243.299 359.656 243.039 359.056 242.519C358.456 241.986 358.156 241.193 358.156 240.139C358.156 240.019 358.222 239.959 358.356 239.959H359.676C359.796 239.959 359.856 240.013 359.856 240.119C359.856 240.719 360.002 241.153 360.296 241.419C360.602 241.686 361.096 241.819 361.776 241.819C362.429 241.819 362.922 241.713 363.256 241.499C363.589 241.273 363.756 240.953 363.756 240.539C363.756 240.233 363.662 239.979 363.476 239.779C363.289 239.566 362.996 239.373 362.596 239.199L360.316 238.259C359.582 237.953 359.062 237.606 358.756 237.219C358.449 236.833 358.296 236.333 358.296 235.719C358.296 234.839 358.576 234.179 359.136 233.739C359.696 233.286 360.529 233.059 361.636 233.059C362.769 233.059 363.649 233.299 364.276 233.779C364.902 234.246 365.216 234.913 365.216 235.779C365.216 235.899 365.149 235.959 365.016 235.959H363.696C363.642 235.959 363.596 235.939 363.556 235.899C363.516 235.846 363.496 235.759 363.496 235.639C363.496 235.293 363.336 235.026 363.016 234.839C362.696 234.639 362.256 234.539 361.696 234.539C361.122 234.539 360.696 234.639 360.416 234.839C360.136 235.026 359.996 235.319 359.996 235.719C359.996 236.013 360.069 236.233 360.216 236.379C360.376 236.526 360.689 236.699 361.156 236.899L363.436 237.859C364.142 238.153 364.656 238.499 364.976 238.899C365.296 239.299 365.456 239.813 365.456 240.439C365.456 241.359 365.136 242.066 364.496 242.559C363.856 243.053 362.942 243.299 361.756 243.299Z" fill="white"/>
<circle cx="329" cy="225.059" r="99.5" stroke="black"/>
<circle cx="329" cy="225.059" r="149.5" stroke="black"/>
<rect x="233.5" y="406.059" width="191" height="44" rx="22" fill="#808080"/>
<path d="M283.261 434.059C283.141 434.059 283.068 434.006 283.041 433.899L279.381 421.179C279.341 421.033 279.401 420.959 279.561 420.959H280.881C281.001 420.959 281.074 421.013 281.101 421.119L283.421 429.379C283.514 429.686 283.601 429.999 283.681 430.319C283.761 430.626 283.841 430.939 283.921 431.259C284.014 431.566 284.101 431.879 284.181 432.199H284.201C284.348 431.733 284.488 431.273 284.621 430.819C284.768 430.366 284.908 429.913 285.041 429.459L286.721 423.879L286.001 421.379C285.988 421.313 285.994 421.259 286.021 421.219C286.061 421.179 286.114 421.159 286.181 421.159H287.541C287.661 421.159 287.734 421.219 287.761 421.339L290.021 429.639C290.141 430.066 290.254 430.493 290.361 430.919C290.481 431.346 290.601 431.773 290.721 432.199H290.741C290.821 431.893 290.901 431.586 290.981 431.279C291.061 430.973 291.141 430.666 291.221 430.359C291.301 430.053 291.381 429.746 291.461 429.439L293.701 421.119C293.728 421.013 293.801 420.959 293.921 420.959H295.301C295.461 420.959 295.521 421.033 295.481 421.179L291.961 433.899C291.934 434.006 291.861 434.059 291.741 434.059H289.841C289.721 434.059 289.648 434.006 289.621 433.899L288.261 429.199C288.128 428.759 288.001 428.319 287.881 427.879C287.761 427.439 287.641 426.999 287.521 426.559H287.501C287.368 426.986 287.234 427.419 287.101 427.859C286.981 428.286 286.854 428.713 286.721 429.139L285.301 433.899C285.288 433.953 285.261 433.993 285.221 434.019C285.194 434.046 285.148 434.059 285.081 434.059H283.261ZM304.015 434.059C303.881 434.059 303.815 433.993 303.815 433.859V427.479C303.815 426.826 303.681 426.346 303.415 426.039C303.148 425.719 302.741 425.559 302.195 425.559C301.661 425.559 301.121 425.726 300.575 426.059C300.028 426.379 299.435 426.886 298.795 427.579L298.815 426.019C299.255 425.553 299.675 425.179 300.075 424.899C300.475 424.606 300.875 424.393 301.275 424.259C301.688 424.126 302.121 424.059 302.575 424.059C303.535 424.059 304.261 424.339 304.755 424.899C305.261 425.459 305.515 426.293 305.515 427.399V433.859C305.515 433.993 305.448 434.059 305.315 434.059H304.015ZM297.595 434.059C297.461 434.059 297.395 433.993 297.395 433.859V420.599C297.395 420.466 297.461 420.399 297.595 420.399H298.895C299.028 420.399 299.095 420.466 299.095 420.599V433.859C299.095 433.993 299.028 434.059 298.895 434.059H297.595ZM308.708 434.059C308.574 434.059 308.508 433.993 308.508 433.859V424.499C308.508 424.366 308.574 424.299 308.708 424.299H310.008C310.141 424.299 310.208 424.366 310.208 424.499V433.859C310.208 433.993 310.141 434.059 310.008 434.059H308.708ZM309.368 422.659C308.981 422.659 308.701 422.559 308.528 422.359C308.354 422.146 308.268 421.879 308.268 421.559V421.359C308.268 421.039 308.354 420.779 308.528 420.579C308.701 420.366 308.981 420.259 309.368 420.259C309.754 420.259 310.034 420.366 310.208 420.579C310.381 420.779 310.468 421.039 310.468 421.359V421.559C310.468 421.879 310.381 422.146 310.208 422.359C310.034 422.559 309.754 422.659 309.368 422.659ZM316.635 434.299C315.955 434.299 315.408 434.186 314.995 433.959C314.595 433.719 314.302 433.366 314.115 432.899C313.942 432.433 313.855 431.853 313.855 431.159V425.759H312.315C312.182 425.759 312.115 425.693 312.115 425.559V424.499C312.115 424.366 312.182 424.299 312.315 424.299H313.895L314.115 421.899C314.128 421.766 314.202 421.699 314.335 421.699H315.335C315.468 421.699 315.535 421.766 315.535 421.899L315.555 424.299H318.535C318.668 424.299 318.735 424.366 318.735 424.499V425.559C318.735 425.693 318.668 425.759 318.535 425.759H315.555V431.119C315.555 431.746 315.662 432.186 315.875 432.439C316.102 432.693 316.482 432.819 317.015 432.819C317.282 432.819 317.548 432.793 317.815 432.739C318.082 432.673 318.315 432.593 318.515 432.499C318.582 432.473 318.635 432.473 318.675 432.499C318.728 432.526 318.755 432.573 318.755 432.639V433.739C318.755 433.846 318.702 433.919 318.595 433.959C318.355 434.053 318.075 434.133 317.755 434.199C317.435 434.266 317.062 434.299 316.635 434.299ZM324.376 434.299C323.096 434.299 322.11 433.999 321.416 433.399C320.736 432.799 320.396 431.913 320.396 430.739V427.939C320.396 426.673 320.736 425.713 321.416 425.059C322.096 424.393 323.083 424.059 324.376 424.059C325.67 424.059 326.65 424.386 327.316 425.039C327.996 425.679 328.336 426.613 328.336 427.839V429.399C328.336 429.533 328.27 429.599 328.136 429.599H322.096V430.239C322.096 431.133 322.283 431.786 322.656 432.199C323.03 432.599 323.636 432.799 324.476 432.799C325.103 432.799 325.583 432.699 325.916 432.499C326.263 432.286 326.436 431.979 326.436 431.579C326.436 431.433 326.51 431.359 326.656 431.359H327.956C328.063 431.359 328.13 431.419 328.156 431.539C328.21 432.393 327.896 433.066 327.216 433.559C326.536 434.053 325.59 434.299 324.376 434.299ZM322.096 428.139H326.636V428.019C326.636 427.179 326.45 426.559 326.076 426.159C325.703 425.759 325.143 425.559 324.396 425.559C323.623 425.559 323.043 425.766 322.656 426.179C322.283 426.593 322.096 427.213 322.096 428.039V428.139ZM335.327 434.059C335.273 434.059 335.227 434.039 335.187 433.999C335.147 433.959 335.127 433.913 335.127 433.859L335.407 421.159C335.407 421.026 335.473 420.959 335.607 420.959H337.727C337.82 420.959 337.893 421.013 337.947 421.119L341.447 428.979L344.887 421.119C344.94 421.013 345.013 420.959 345.107 420.959H347.227C347.36 420.959 347.427 421.026 347.427 421.159L347.707 433.859C347.707 433.913 347.687 433.959 347.647 433.999C347.62 434.039 347.573 434.059 347.507 434.059H346.247C346.113 434.059 346.047 433.993 346.047 433.859L345.847 425.819C345.833 425.326 345.833 424.839 345.847 424.359C345.873 423.879 345.893 423.393 345.907 422.899H345.867C345.667 423.393 345.46 423.879 345.247 424.359C345.047 424.839 344.833 425.326 344.607 425.819L341.647 432.239C341.607 432.333 341.533 432.379 341.427 432.379H341.387C341.28 432.379 341.207 432.333 341.167 432.239L338.167 425.719C337.953 425.253 337.747 424.786 337.547 424.319C337.36 423.839 337.173 423.366 336.987 422.899H336.947C336.973 423.366 336.987 423.839 336.987 424.319C337 424.799 337 425.273 336.987 425.739L336.787 433.859C336.787 433.993 336.72 434.059 336.587 434.059H335.327ZM353.238 434.299C352.384 434.299 351.731 434.013 351.278 433.439C350.824 432.866 350.598 432.039 350.598 430.959V424.499C350.598 424.366 350.664 424.299 350.798 424.299H352.098C352.231 424.299 352.298 424.366 352.298 424.499V430.879C352.298 431.533 352.411 432.019 352.638 432.339C352.878 432.646 353.244 432.799 353.738 432.799C354.231 432.799 354.724 432.646 355.218 432.339C355.724 432.033 356.351 431.499 357.098 430.739L357.058 432.319C356.631 432.759 356.204 433.126 355.778 433.419C355.351 433.713 354.924 433.933 354.498 434.079C354.084 434.226 353.664 434.299 353.238 434.299ZM357.238 434.059C357.171 434.059 357.118 434.046 357.078 434.019C357.038 433.979 357.011 433.926 356.998 433.859C356.958 433.606 356.924 433.346 356.898 433.079C356.871 432.813 356.851 432.539 356.838 432.259L356.738 431.419V424.499C356.738 424.366 356.804 424.299 356.938 424.299H358.238C358.371 424.299 358.438 424.366 358.438 424.499V431.619C358.438 431.979 358.444 432.353 358.458 432.739C358.484 433.126 358.524 433.499 358.578 433.859C358.604 433.993 358.531 434.059 358.358 434.059H357.238ZM364.598 434.299C363.398 434.299 362.498 434.039 361.898 433.519C361.298 432.986 360.998 432.193 360.998 431.139C360.998 431.019 361.064 430.959 361.198 430.959H362.518C362.638 430.959 362.698 431.013 362.698 431.119C362.698 431.719 362.844 432.153 363.138 432.419C363.444 432.686 363.938 432.819 364.618 432.819C365.271 432.819 365.764 432.713 366.098 432.499C366.431 432.273 366.598 431.953 366.598 431.539C366.598 431.233 366.504 430.979 366.318 430.779C366.131 430.566 365.838 430.373 365.438 430.199L363.158 429.259C362.424 428.953 361.904 428.606 361.598 428.219C361.291 427.833 361.138 427.333 361.138 426.719C361.138 425.839 361.418 425.179 361.978 424.739C362.538 424.286 363.371 424.059 364.478 424.059C365.611 424.059 366.491 424.299 367.118 424.779C367.744 425.246 368.058 425.913 368.058 426.779C368.058 426.899 367.991 426.959 367.858 426.959H366.538C366.484 426.959 366.438 426.939 366.398 426.899C366.358 426.846 366.338 426.759 366.338 426.639C366.338 426.293 366.178 426.026 365.858 425.839C365.538 425.639 365.098 425.539 364.538 425.539C363.964 425.539 363.538 425.639 363.258 425.839C362.978 426.026 362.838 426.319 362.838 426.719C362.838 427.013 362.911 427.233 363.058 427.379C363.218 427.526 363.531 427.699 363.998 427.899L366.278 428.859C366.984 429.153 367.498 429.499 367.818 429.899C368.138 430.299 368.298 430.813 368.298 431.439C368.298 432.359 367.978 433.066 367.338 433.559C366.698 434.053 365.784 434.299 364.598 434.299ZM370.915 434.059C370.782 434.059 370.715 433.993 370.715 433.859V420.599C370.715 420.466 370.782 420.399 370.915 420.399H372.215C372.348 420.399 372.415 420.466 372.415 420.599V425.779C372.415 426.086 372.415 426.393 372.415 426.699C372.415 427.006 372.415 427.313 372.415 427.619C372.415 427.926 372.408 428.233 372.395 428.539H372.415C372.655 428.273 372.895 428.006 373.135 427.739C373.388 427.473 373.642 427.206 373.895 426.939L376.255 424.399C376.308 424.333 376.388 424.299 376.495 424.299H378.255C378.348 424.299 378.402 424.326 378.415 424.379C378.442 424.419 378.422 424.473 378.355 424.539L375.035 427.939L378.655 433.819C378.695 433.886 378.702 433.946 378.675 433.999C378.648 434.039 378.595 434.059 378.515 434.059H376.975C376.882 434.059 376.802 434.013 376.735 433.919L373.815 429.199L372.415 430.619V433.859C372.415 433.993 372.348 434.059 372.215 434.059H370.915Z" fill="white"/>
<rect x="510" y="203.059" width="146" height="44" rx="22" fill="#808080"/>
<path d="M559.901 231.059C559.781 231.059 559.701 231.006 559.661 230.899L555.381 218.179C555.341 218.033 555.394 217.959 555.541 217.959H556.941C557.061 217.959 557.141 218.013 557.181 218.119L559.941 226.639C560.087 227.093 560.234 227.553 560.381 228.019C560.541 228.486 560.687 228.953 560.821 229.419H560.861C561.007 228.966 561.154 228.513 561.301 228.059C561.461 227.606 561.614 227.153 561.761 226.699L564.641 218.119C564.681 218.013 564.761 217.959 564.881 217.959H566.261C566.407 217.959 566.461 218.033 566.421 218.179L562.041 230.899C562.001 231.006 561.921 231.059 561.801 231.059H559.901ZM573.099 231.059C573.019 231.059 572.966 231.033 572.939 230.979C572.913 230.926 572.886 230.859 572.859 230.779C572.846 230.673 572.813 230.446 572.759 230.099C572.719 229.739 572.693 229.419 572.679 229.139L572.619 228.379V224.399C572.619 223.733 572.486 223.259 572.219 222.979C571.953 222.699 571.486 222.559 570.819 222.559C569.619 222.559 569.019 222.973 569.019 223.799C569.019 223.933 568.959 223.999 568.839 223.999H567.519C567.386 223.999 567.313 223.873 567.299 223.619C567.233 222.859 567.526 222.246 568.179 221.779C568.846 221.299 569.746 221.059 570.879 221.059C572.039 221.059 572.899 221.333 573.459 221.879C574.033 222.426 574.319 223.253 574.319 224.359V228.639C574.319 229.106 574.333 229.526 574.359 229.899C574.386 230.259 574.419 230.573 574.459 230.839C574.486 230.986 574.419 231.059 574.259 231.059H573.099ZM569.279 231.299C568.506 231.299 567.913 231.066 567.499 230.599C567.099 230.133 566.899 229.453 566.899 228.559C566.899 227.866 567.033 227.299 567.299 226.859C567.579 226.419 568.019 226.079 568.619 225.839C569.233 225.599 570.046 225.439 571.059 225.359L572.939 225.199V226.499L571.019 226.659C570.099 226.739 569.466 226.906 569.119 227.159C568.773 227.413 568.599 227.839 568.599 228.439C568.599 228.893 568.693 229.233 568.879 229.459C569.066 229.686 569.346 229.799 569.719 229.799C570.159 229.799 570.619 229.653 571.099 229.359C571.579 229.053 572.213 228.493 572.999 227.679V229.179C572.533 229.686 572.093 230.099 571.679 230.419C571.279 230.726 570.886 230.946 570.499 231.079C570.113 231.226 569.706 231.299 569.279 231.299ZM583.942 231.059C583.809 231.059 583.742 230.993 583.742 230.859V224.479C583.742 223.813 583.602 223.326 583.322 223.019C583.056 222.713 582.649 222.559 582.102 222.559C581.582 222.559 581.069 222.713 580.562 223.019C580.056 223.326 579.422 223.853 578.662 224.599L578.682 223.059C579.136 222.579 579.562 222.193 579.962 221.899C580.376 221.606 580.782 221.393 581.182 221.259C581.596 221.126 582.029 221.059 582.482 221.059C583.442 221.059 584.176 221.339 584.682 221.899C585.189 222.459 585.442 223.293 585.442 224.399V230.859C585.442 230.993 585.376 231.059 585.242 231.059H583.942ZM577.522 231.059C577.389 231.059 577.322 230.993 577.322 230.859V223.739C577.322 223.393 577.302 223.006 577.262 222.579C577.236 222.139 577.209 221.799 577.182 221.559C577.156 221.386 577.222 221.299 577.382 221.299H578.602C578.669 221.299 578.716 221.313 578.742 221.339C578.782 221.366 578.809 221.419 578.822 221.499C578.849 221.606 578.876 221.773 578.902 221.999C578.929 222.226 578.956 222.466 578.982 222.719C579.009 222.959 579.022 223.166 579.022 223.339V223.859V230.859C579.022 230.993 578.956 231.059 578.822 231.059H577.522ZM588.636 231.059C588.502 231.059 588.436 230.993 588.436 230.859V221.499C588.436 221.366 588.502 221.299 588.636 221.299H589.936C590.069 221.299 590.136 221.366 590.136 221.499V230.859C590.136 230.993 590.069 231.059 589.936 231.059H588.636ZM589.296 219.659C588.909 219.659 588.629 219.559 588.456 219.359C588.282 219.146 588.196 218.879 588.196 218.559V218.359C588.196 218.039 588.282 217.779 588.456 217.579C588.629 217.366 588.909 217.259 589.296 217.259C589.682 217.259 589.962 217.366 590.136 217.579C590.309 217.779 590.396 218.039 590.396 218.359V218.559C590.396 218.879 590.309 219.146 590.136 219.359C589.962 219.559 589.682 219.659 589.296 219.659ZM593.343 231.059C593.209 231.059 593.143 230.993 593.143 230.859V217.599C593.143 217.466 593.209 217.399 593.343 217.399H594.643C594.776 217.399 594.843 217.466 594.843 217.599V230.859C594.843 230.993 594.776 231.059 594.643 231.059H593.343ZM598.05 231.059C597.916 231.059 597.85 230.993 597.85 230.859V217.599C597.85 217.466 597.916 217.399 598.05 217.399H599.35C599.483 217.399 599.55 217.466 599.55 217.599V230.859C599.55 230.993 599.483 231.059 599.35 231.059H598.05ZM608.217 231.059C608.137 231.059 608.083 231.033 608.057 230.979C608.03 230.926 608.003 230.859 607.977 230.779C607.963 230.673 607.93 230.446 607.877 230.099C607.837 229.739 607.81 229.419 607.797 229.139L607.737 228.379V224.399C607.737 223.733 607.603 223.259 607.337 222.979C607.07 222.699 606.603 222.559 605.937 222.559C604.737 222.559 604.137 222.973 604.137 223.799C604.137 223.933 604.077 223.999 603.957 223.999H602.637C602.503 223.999 602.43 223.873 602.417 223.619C602.35 222.859 602.643 222.246 603.297 221.779C603.963 221.299 604.863 221.059 605.997 221.059C607.157 221.059 608.017 221.333 608.577 221.879C609.15 222.426 609.437 223.253 609.437 224.359V228.639C609.437 229.106 609.45 229.526 609.477 229.899C609.503 230.259 609.537 230.573 609.577 230.839C609.603 230.986 609.537 231.059 609.377 231.059H608.217ZM604.397 231.299C603.623 231.299 603.03 231.066 602.617 230.599C602.217 230.133 602.017 229.453 602.017 228.559C602.017 227.866 602.15 227.299 602.417 226.859C602.697 226.419 603.137 226.079 603.737 225.839C604.35 225.599 605.163 225.439 606.177 225.359L608.057 225.199V226.499L606.137 226.659C605.217 226.739 604.583 226.906 604.237 227.159C603.89 227.413 603.717 227.839 603.717 228.439C603.717 228.893 603.81 229.233 603.997 229.459C604.183 229.686 604.463 229.799 604.837 229.799C605.277 229.799 605.737 229.653 606.217 229.359C606.697 229.053 607.33 228.493 608.117 227.679V229.179C607.65 229.686 607.21 230.099 606.797 230.419C606.397 230.726 606.003 230.946 605.617 231.079C605.23 231.226 604.823 231.299 604.397 231.299Z" fill="white"/>
</svg>
